# xmcd
#
# Track frame offsets:
# 150
# 10513
# 29853
# 44649
# 63162
# 83148
# 94491
# 116596
# 131707
# 141126
# 151433
#
# Disc length: 2108 seconds
#
#
# Revision: 0
# Processed by: cddbd v1.5.2PL0 Copyright (c) Steve Scherf et al.
# Submitted via: FreeRIP 2.951 
#
DISCID=97083a0b
DTITLE=Christmas - Bridge River Indian Band Various Artists
DYEAR=2006
DGENRE=
TTITLE0=01- Winter Wonderland
TTITLE1=02- O Christmas Tree
TTITLE2=03- White Christmas
TTITLE3=04- Silent Night
TTITLE4=05- Christmas Medley
TTITLE5=06- O Holy Night
TTITLE6=07- The First Noel
TTITLE7=08- Silver Bells
TTITLE8=09- Joy To The World
TTITLE9=10- Have Yourself A Merry Little Christmas
TTITLE10=11- We Wish You A Merry christmas
EXTD=Bridge River Indian Band Christmas Card CD
EXTT0=
EXTT1=
EXTT2=
EXTT3=
EXTT4=
EXTT5=
EXTT6=
EXTT7=
EXTT8=
EXTT9=
EXTT10=
PLAYORDER=
